<svg xmlns="http://www.w3.org/2000/svg" xmlns:xlink="http://www.w3.org/1999/xlink" viewBox="0 0 408.47 245.05"><defs><style>.cls-1{fill:#2589FF;}.cls-2{clip-path:url(#clip-path);}.cls-3{clip-path:url(#clip-path-2);}.cls-4{clip-path:url(#clip-path-3);}</style><clipPath id="clip-path"><path class="cls-1" d="M293.77,202.1h-3.33l-3.8,14.55h2.71l1-4h3.37l1,4h2.94Zm-.69,8H291l1.06-4.2Z"/></clipPath><clipPath id="clip-path-2"><path class="cls-1" d="M327.06,210.47a3.72,3.72,0,0,0,1.81-1.22,4.29,4.29,0,0,0,.78-2.66,3.94,3.94,0,0,0-1.32-3.22,5.84,5.84,0,0,0-3.82-1.05h-4.05v14.33h2.73V211h1l3.18,5.7h3.25Zm-3.87-5.64h1.06a3.27,3.27,0,0,1,2,.46,1.66,1.66,0,0,1,.53,1.4,1.41,1.41,0,0,1-.55,1.25,3.28,3.28,0,0,1-1.92.44h-1.1Z"/></clipPath><clipPath id="clip-path-3"><path class="cls-1" d="M362.47,212.67a3.77,3.77,0,0,1-1.36,3,5.47,5.47,0,0,1-3.54,1.1,4.42,4.42,0,0,1-3.22-1.12,4.49,4.49,0,0,1-1.23-3.2v-.41H356v.39a1.93,1.93,0,0,0,.41,1.37,1.56,1.56,0,0,0,1.16.42,2.15,2.15,0,0,0,1.47-.47,1.4,1.4,0,0,0,.53-1.15,1.43,1.43,0,0,0-.35-1,7.87,7.87,0,0,0-2.15-1.29l-1-.47a5.53,5.53,0,0,1-2.13-1.63,3.76,3.76,0,0,1-.73-2.3,3.5,3.5,0,0,1,1.34-2.87A5.09,5.09,0,0,1,358,202a4.53,4.53,0,0,1,3.07,1,4.1,4.1,0,0,1,1.32,2.84l0,.43h-2.89l0-.36a1.25,1.25,0,0,0-.46-1,1.67,1.67,0,0,0-1.19-.38,1.82,1.82,0,0,0-1.24.41,1.23,1.23,0,0,0-.46,1,1.2,1.2,0,0,0,.4.88,6.55,6.55,0,0,0,1.76,1.08l.77.38a7.28,7.28,0,0,1,2.62,1.92A3.91,3.91,0,0,1,362.47,212.67Z"/></clipPath></defs><title>资源 2</title><g id="图层_2" data-name="图层 2"><g id="图层_1-2" data-name="图层 1"><path class="cls-1" d="M139.33,151.79A32.92,32.92,0,0,1,128.9,176L56.05,244.71a1.27,1.27,0,0,1-1.78-.05,29.26,29.26,0,0,1,1.22-41.37l22.77-21.53.08-.07A78.38,78.38,0,0,0,99.93,152a79.45,79.45,0,0,0,3.21-51.76L130.29,129A33,33,0,0,1,139.33,151.79Z"/><path class="cls-1" d="M100.67,121.46A73.84,73.84,0,0,1,95,149.91c-.27.64-.53,1.28-.82,1.9,0-.19,0-.37,0-.56s0-.62,0-.92a38.17,38.17,0,0,0-1.06-9c-.1-.42-.2-.84-.33-1.26,0-.16-.08-.32-.13-.49q-.16-.59-.36-1.17c-.4-1.21-.86-2.41-1.38-3.59-.2-.46-.41-.91-.63-1.36-.31-.63-.63-1.24-1-1.85s-.6-1.05-.93-1.56-.52-.81-.8-1.21c-.13-.21-.28-.42-.43-.63q-.42-.59-.87-1.17c-.75-1-1.56-1.92-2.42-2.84l-9.17-9.73a25.67,25.67,0,0,1,1.07-36.24l1.64-1.54A2.63,2.63,0,0,1,79.2,76a2.6,2.6,0,0,1,1.92.83L93.81,90.32A74.14,74.14,0,0,1,100.67,121.46Z"/><path class="cls-1" d="M63.57,166.78l-1.64,1.54a2.64,2.64,0,0,1-3.72-.11L40.77,149.69a74.3,74.3,0,0,1,4.56-58.77s0,0,0,0c0,.23,0,.46-.06.7,0,.44-.06.88-.08,1.31,0,.59,0,1.18,0,1.76a37.94,37.94,0,0,0,10.33,26.08l9.17,9.73A25.66,25.66,0,0,1,63.57,166.78Z"/><path class="cls-1" d="M93,21.33a29.06,29.06,0,0,1-9.18,20.43L57.08,67.07c-.56.52-1.06,1-1.52,1.52l-.09.09A79.41,79.41,0,0,0,33,141.41L9,116a33.2,33.2,0,0,1,1.39-46.93L83.29.35A1.23,1.23,0,0,1,84.16,0h0a1.18,1.18,0,0,1,.86.39A29,29,0,0,1,93,21.33Z"/><circle class="cls-1" cx="96.42" cy="59.6" r="12.73"/><path class="cls-1" d="M355.14,124.19a5.6,5.6,0,0,0-7.89,0l-.28.28a5.61,5.61,0,0,0,0,7.9L394.8,180.2a5.61,5.61,0,0,0,7.9,0l.28-.28a5.6,5.6,0,0,0,0-7.89Z"/><path class="cls-1" d="M355.17,171H342.76a4.53,4.53,0,0,1-4.53-4.53V125.27a5.8,5.8,0,0,0-5.78-5.78h0a5.8,5.8,0,0,0-5.78,5.78v51.57a5.8,5.8,0,0,0,5.78,5.78h22.72a5.8,5.8,0,0,0,5.78-5.78v-.05A5.8,5.8,0,0,0,355.17,171Z"/><path class="cls-1" d="M402.69,62.17H310.61a4.72,4.72,0,0,0-4.72,4.72V180.14a5.8,5.8,0,0,0,5.77,5.78h0a5.8,5.8,0,0,0,5.77-5.78V78.45a4.73,4.73,0,0,1,4.73-4.73h80.52a5.8,5.8,0,0,0,5.78-5.78h0A5.79,5.79,0,0,0,402.69,62.17Z"/><rect class="cls-1" x="323.7" y="83.06" width="71.4" height="11.56" rx="5.58" ry="5.58"/><rect class="cls-1" x="373.72" y="131.82" width="31.7" height="11.56" rx="5.58" ry="5.58"/><rect class="cls-1" x="324.69" y="101.52" width="83.78" height="11.56" rx="5.58" ry="5.58"/><circle class="cls-1" cx="291.94" cy="178.51" r="6.63"/><path class="cls-1" d="M174.79,114.18h1.92a4.72,4.72,0,0,0,4.72-4.72V98.58a4.72,4.72,0,0,1,4.73-4.72h45.47a4.72,4.72,0,0,0,4.72-4.73V87.22a4.72,4.72,0,0,0-4.72-4.73H186.16a4.73,4.73,0,0,1-4.73-4.73V66.89a4.72,4.72,0,0,0-4.72-4.72h-1.92a4.72,4.72,0,0,0-4.72,4.72v42.57A4.72,4.72,0,0,0,174.79,114.18Z"/><path class="cls-1" d="M272,62.17h-71.6a4.72,4.72,0,0,0-4.73,4.72v1.92a4.72,4.72,0,0,0,4.73,4.72h60.23a4.73,4.73,0,0,1,4.73,4.73V98.09a4.73,4.73,0,0,1-4.73,4.73H200.41a4.72,4.72,0,0,0-4.73,4.72v1.92a4.72,4.72,0,0,0,4.73,4.72H272a4.72,4.72,0,0,0,4.73-4.72V66.89A4.72,4.72,0,0,0,272,62.17Z"/><path class="cls-1" d="M272,130.6H249.58a4.72,4.72,0,0,1-4.72-4.73v-.38a4.72,4.72,0,0,0-4.73-4.72h-1.92a4.72,4.72,0,0,0-4.72,4.72v.38a4.73,4.73,0,0,1-4.73,4.73H186.15a4.72,4.72,0,0,1-4.72-4.73v-.38a4.72,4.72,0,0,0-4.73-4.72h-1.92a4.72,4.72,0,0,0-4.72,4.72v26.74a4.72,4.72,0,0,0,4.72,4.73h1.92a4.73,4.73,0,0,0,4.73-4.73v-5.54a4.72,4.72,0,0,1,4.72-4.73h42.61a4.73,4.73,0,0,1,4.73,4.73v2.25a4.73,4.73,0,0,1-4.73,4.73h-34.7a4.72,4.72,0,0,0-4.73,4.72v1.92a4.73,4.73,0,0,0,4.73,4.73h34.7a4.72,4.72,0,0,1,4.73,4.72h0a4.73,4.73,0,0,1-4.73,4.73H179a4.72,4.72,0,0,0-4.72,4.72v1.92a4.72,4.72,0,0,0,4.72,4.73h93a4.73,4.73,0,0,0,4.73-4.73v-1.92a4.72,4.72,0,0,0-4.73-4.72H249.58a4.72,4.72,0,0,1-4.72-4.73h0a4.72,4.72,0,0,1,4.72-4.72H272a4.73,4.73,0,0,0,4.73-4.73v-1.92a4.72,4.72,0,0,0-4.73-4.72H249.58a4.72,4.72,0,0,1-4.72-4.73v-2.25a4.72,4.72,0,0,1,4.72-4.73H272a4.72,4.72,0,0,0,4.73-4.72v-1.92A4.72,4.72,0,0,0,272,130.6Z"/><path class="cls-1" d="M231,212.67a3.77,3.77,0,0,1-1.37,3,5.48,5.48,0,0,1-3.55,1.1,4.51,4.51,0,0,1-3.23-1.12,4.57,4.57,0,0,1-1.21-3.2v-.41h2.91v.39a1.84,1.84,0,0,0,.41,1.37,1.5,1.5,0,0,0,1.16.42,2.15,2.15,0,0,0,1.46-.47,1.53,1.53,0,0,0,.17-2.14,7.75,7.75,0,0,0-2.13-1.29l-1-.47a5.42,5.42,0,0,1-2.14-1.63,3.76,3.76,0,0,1-.74-2.3,3.56,3.56,0,0,1,1.34-2.87,5.15,5.15,0,0,1,3.38-1.07,4.44,4.44,0,0,1,3,1,4,4,0,0,1,1.33,2.84l0,.43H228l0-.36a1.34,1.34,0,0,0-.45-1,1.71,1.71,0,0,0-1.2-.38,1.85,1.85,0,0,0-1.24.41,1.22,1.22,0,0,0-.06,1.84,6.91,6.91,0,0,0,1.76,1.08l.77.38a7.19,7.19,0,0,1,2.62,1.92A3.88,3.88,0,0,1,231,212.67Z"/><polygon class="cls-1" points="264.21 202.32 264.21 204.88 260.58 204.88 260.58 216.65 257.86 216.65 257.86 204.88 254.24 204.88 254.24 202.32 264.21 202.32"/><path class="cls-1" d="M293.77,202.1h-3.33l-3.8,14.55h2.71l1-4h3.37l1,4h2.94Zm-.69,8H291l1.06-4.2Z"/><g class="cls-2"><rect class="cls-1" x="290.97" y="210.06" width="2.11" height="0.04"/><rect class="cls-1" x="290.97" y="209.83" width="2.11" height="0.23"/><rect class="cls-1" x="290.97" y="209.6" width="2.11" height="0.23"/><rect class="cls-1" x="290.97" y="209.37" width="2.11" height="0.23"/><rect class="cls-1" x="290.97" y="209.15" width="2.11" height="0.23"/><rect class="cls-1" x="290.97" y="208.92" width="2.11" height="0.23"/><rect class="cls-1" x="290.97" y="208.69" width="2.11" height="0.23"/><rect class="cls-1" x="290.97" y="208.46" width="2.11" height="0.23"/><rect class="cls-1" x="290.97" y="208.24" width="2.11" height="0.23"/><rect class="cls-1" x="290.97" y="208.01" width="2.11" height="0.23"/><rect class="cls-1" x="290.97" y="207.78" width="2.11" height="0.23"/><rect class="cls-1" x="290.97" y="207.55" width="2.11" height="0.23"/><rect class="cls-1" x="290.97" y="207.33" width="2.11" height="0.23"/><rect class="cls-1" x="290.97" y="207.1" width="2.11" height="0.23"/><rect class="cls-1" x="290.97" y="206.87" width="2.11" height="0.23"/><rect class="cls-1" x="290.97" y="206.65" width="2.11" height="0.23"/><rect class="cls-1" x="290.97" y="206.42" width="2.11" height="0.23"/><rect class="cls-1" x="290.97" y="206.19" width="2.11" height="0.23"/><rect class="cls-1" x="290.97" y="205.96" width="2.11" height="0.23"/><rect class="cls-1" x="290.97" y="205.9" width="2.11" height="0.06"/><path class="cls-1" d="M286.64,216.65h0Z"/><rect class="cls-1" x="286.64" y="216.42" width="10.97" height="0.23"/><rect class="cls-1" x="286.64" y="216.2" width="10.97" height="0.23"/><rect class="cls-1" x="286.64" y="215.97" width="10.97" height="0.23"/><rect class="cls-1" x="286.64" y="215.74" width="10.97" height="0.23"/><rect class="cls-1" x="286.64" y="215.51" width="10.97" height="0.23"/><rect class="cls-1" x="286.64" y="215.29" width="10.97" height="0.23"/><rect class="cls-1" x="286.64" y="215.06" width="10.97" height="0.23"/><rect class="cls-1" x="286.64" y="214.83" width="10.97" height="0.23"/><rect class="cls-1" x="286.64" y="214.6" width="10.97" height="0.23"/><rect class="cls-1" x="286.64" y="214.38" width="10.97" height="0.23"/><rect class="cls-1" x="286.64" y="214.15" width="10.97" height="0.23"/><rect class="cls-1" x="286.64" y="213.92" width="10.97" height="0.23"/><rect class="cls-1" x="286.64" y="213.7" width="10.97" height="0.23"/><rect class="cls-1" x="286.64" y="213.47" width="10.97" height="0.23"/><rect class="cls-1" x="286.64" y="213.24" width="10.97" height="0.23"/><rect class="cls-1" x="286.64" y="213.01" width="10.97" height="0.23"/><rect class="cls-1" x="286.64" y="212.79" width="10.97" height="0.23"/><rect class="cls-1" x="286.64" y="212.56" width="10.97" height="0.23"/><rect class="cls-1" x="286.64" y="212.33" width="10.97" height="0.23"/><rect class="cls-1" x="286.64" y="212.1" width="10.97" height="0.23"/><rect class="cls-1" x="286.64" y="211.88" width="10.97" height="0.23"/><rect class="cls-1" x="286.64" y="211.65" width="10.97" height="0.23"/><rect class="cls-1" x="286.64" y="211.42" width="10.97" height="0.23"/><rect class="cls-1" x="286.64" y="211.19" width="10.97" height="0.23"/><rect class="cls-1" x="286.64" y="210.97" width="10.97" height="0.23"/><rect class="cls-1" x="286.64" y="210.74" width="10.97" height="0.23"/><rect class="cls-1" x="286.64" y="210.51" width="10.97" height="0.23"/><rect class="cls-1" x="286.64" y="210.28" width="10.97" height="0.23"/><rect class="cls-1" x="286.64" y="210.06" width="10.97" height="0.23"/><rect class="cls-1" x="286.64" y="209.83" width="10.97" height="0.23"/><rect class="cls-1" x="286.64" y="209.6" width="10.97" height="0.23"/><rect class="cls-1" x="286.64" y="209.37" width="10.97" height="0.23"/><rect class="cls-1" x="286.64" y="209.15" width="10.97" height="0.23"/><rect class="cls-1" x="286.64" y="208.92" width="10.97" height="0.23"/><rect class="cls-1" x="286.64" y="208.69" width="10.97" height="0.23"/><rect class="cls-1" x="286.64" y="208.46" width="10.97" height="0.23"/><rect class="cls-1" x="286.64" y="208.24" width="10.97" height="0.23"/><rect class="cls-1" x="286.64" y="208.01" width="10.97" height="0.23"/><rect class="cls-1" x="286.64" y="207.78" width="10.97" height="0.23"/><rect class="cls-1" x="286.64" y="207.55" width="10.97" height="0.23"/><rect class="cls-1" x="286.64" y="207.33" width="10.97" height="0.23"/><rect class="cls-1" x="286.64" y="207.1" width="10.97" height="0.23"/><rect class="cls-1" x="286.64" y="206.87" width="10.97" height="0.23"/><rect class="cls-1" x="286.64" y="206.65" width="10.97" height="0.23"/><rect class="cls-1" x="286.64" y="206.42" width="10.97" height="0.23"/><rect class="cls-1" x="286.64" y="206.19" width="10.97" height="0.23"/><rect class="cls-1" x="286.64" y="205.96" width="10.97" height="0.23"/><rect class="cls-1" x="286.64" y="205.74" width="10.97" height="0.23"/><rect class="cls-1" x="286.64" y="205.51" width="10.97" height="0.23"/><rect class="cls-1" x="286.64" y="205.28" width="10.97" height="0.23"/><rect class="cls-1" x="286.64" y="205.05" width="10.97" height="0.23"/><rect class="cls-1" x="286.64" y="204.83" width="10.97" height="0.23"/><rect class="cls-1" x="286.64" y="204.6" width="10.97" height="0.23"/><rect class="cls-1" x="286.64" y="204.37" width="10.97" height="0.23"/><rect class="cls-1" x="286.64" y="204.14" width="10.97" height="0.23"/><rect class="cls-1" x="286.64" y="203.92" width="10.97" height="0.23"/><rect class="cls-1" x="286.64" y="203.69" width="10.97" height="0.23"/><rect class="cls-1" x="286.64" y="203.46" width="10.97" height="0.23"/><rect class="cls-1" x="286.64" y="203.23" width="10.97" height="0.23"/><rect class="cls-1" x="286.64" y="203.01" width="10.97" height="0.23"/><rect class="cls-1" x="286.64" y="202.78" width="10.97" height="0.23"/><rect class="cls-1" x="286.64" y="202.55" width="10.97" height="0.23"/><rect class="cls-1" x="286.64" y="202.32" width="10.97" height="0.23"/><rect class="cls-1" x="286.64" y="202.1" width="10.97" height="0.23"/><path class="cls-1" d="M297.61,202.1h0Z"/></g><path class="cls-1" d="M327.06,210.47a3.72,3.72,0,0,0,1.81-1.22,4.29,4.29,0,0,0,.78-2.66,3.94,3.94,0,0,0-1.32-3.22,5.84,5.84,0,0,0-3.82-1.05h-4.05v14.33h2.73V211h1l3.18,5.7h3.25Zm-3.87-5.64h1.06a3.27,3.27,0,0,1,2,.46,1.66,1.66,0,0,1,.53,1.4,1.41,1.41,0,0,1-.55,1.25,3.28,3.28,0,0,1-1.92.44h-1.1Z"/><g class="cls-3"><rect class="cls-1" x="323.19" y="208.36" width="3.57" height="0.02"/><rect class="cls-1" x="323.19" y="208.14" width="3.57" height="0.22"/><rect class="cls-1" x="323.19" y="207.92" width="3.57" height="0.22"/><rect class="cls-1" x="323.19" y="207.69" width="3.57" height="0.22"/><rect class="cls-1" x="323.19" y="207.47" width="3.57" height="0.22"/><rect class="cls-1" x="323.19" y="207.24" width="3.57" height="0.22"/><rect class="cls-1" x="323.19" y="207.02" width="3.57" height="0.22"/><rect class="cls-1" x="323.19" y="206.8" width="3.57" height="0.22"/><rect class="cls-1" x="323.19" y="206.57" width="3.57" height="0.22"/><rect class="cls-1" x="323.19" y="206.35" width="3.57" height="0.22"/><rect class="cls-1" x="323.19" y="206.12" width="3.57" height="0.22"/><rect class="cls-1" x="323.19" y="205.9" width="3.57" height="0.22"/><rect class="cls-1" x="323.19" y="205.68" width="3.57" height="0.22"/><rect class="cls-1" x="323.19" y="205.45" width="3.57" height="0.22"/><rect class="cls-1" x="323.19" y="205.23" width="3.57" height="0.22"/><rect class="cls-1" x="323.19" y="205" width="3.57" height="0.22"/><rect class="cls-1" x="323.19" y="204.83" width="3.57" height="0.17"/><path class="cls-1" d="M320.46,216.65h0Z"/><rect class="cls-1" x="320.46" y="216.43" width="10.2" height="0.22"/><rect class="cls-1" x="320.46" y="216.2" width="10.2" height="0.22"/><rect class="cls-1" x="320.46" y="215.98" width="10.2" height="0.22"/><rect class="cls-1" x="320.46" y="215.76" width="10.2" height="0.22"/><rect class="cls-1" x="320.46" y="215.53" width="10.2" height="0.22"/><rect class="cls-1" x="320.46" y="215.31" width="10.2" height="0.22"/><rect class="cls-1" x="320.46" y="215.08" width="10.2" height="0.22"/><rect class="cls-1" x="320.46" y="214.86" width="10.2" height="0.22"/><rect class="cls-1" x="320.46" y="214.64" width="10.2" height="0.22"/><rect class="cls-1" x="320.46" y="214.41" width="10.2" height="0.22"/><rect class="cls-1" x="320.46" y="214.19" width="10.2" height="0.22"/><rect class="cls-1" x="320.46" y="213.96" width="10.2" height="0.22"/><rect class="cls-1" x="320.46" y="213.74" width="10.2" height="0.22"/><rect class="cls-1" x="320.46" y="213.52" width="10.2" height="0.22"/><rect class="cls-1" x="320.46" y="213.29" width="10.2" height="0.22"/><rect class="cls-1" x="320.46" y="213.07" width="10.2" height="0.22"/><rect class="cls-1" x="320.46" y="212.84" width="10.2" height="0.22"/><rect class="cls-1" x="320.46" y="212.62" width="10.2" height="0.22"/><rect class="cls-1" x="320.46" y="212.4" width="10.2" height="0.22"/><rect class="cls-1" x="320.46" y="212.17" width="10.2" height="0.22"/><rect class="cls-1" x="320.46" y="211.95" width="10.2" height="0.22"/><rect class="cls-1" x="320.46" y="211.72" width="10.2" height="0.22"/><rect class="cls-1" x="320.46" y="211.5" width="10.2" height="0.22"/><rect class="cls-1" x="320.46" y="211.28" width="10.2" height="0.22"/><rect class="cls-1" x="320.46" y="211.05" width="10.2" height="0.22"/><rect class="cls-1" x="320.46" y="210.83" width="10.2" height="0.22"/><rect class="cls-1" x="320.46" y="210.6" width="10.2" height="0.22"/><rect class="cls-1" x="320.46" y="210.38" width="10.2" height="0.22"/><rect class="cls-1" x="320.46" y="210.16" width="10.2" height="0.22"/><rect class="cls-1" x="320.46" y="209.93" width="10.2" height="0.22"/><rect class="cls-1" x="320.46" y="209.71" width="10.2" height="0.22"/><rect class="cls-1" x="320.46" y="209.48" width="10.2" height="0.22"/><rect class="cls-1" x="320.46" y="209.26" width="10.2" height="0.22"/><rect class="cls-1" x="320.46" y="209.04" width="10.2" height="0.22"/><rect class="cls-1" x="320.46" y="208.81" width="10.2" height="0.22"/><rect class="cls-1" x="320.46" y="208.59" width="10.2" height="0.22"/><rect class="cls-1" x="320.46" y="208.36" width="10.2" height="0.22"/><rect class="cls-1" x="320.46" y="208.14" width="10.2" height="0.22"/><rect class="cls-1" x="320.46" y="207.92" width="10.2" height="0.22"/><rect class="cls-1" x="320.46" y="207.69" width="10.2" height="0.22"/><rect class="cls-1" x="320.46" y="207.47" width="10.2" height="0.22"/><rect class="cls-1" x="320.46" y="207.24" width="10.2" height="0.22"/><rect class="cls-1" x="320.46" y="207.02" width="10.2" height="0.22"/><rect class="cls-1" x="320.46" y="206.8" width="10.2" height="0.22"/><rect class="cls-1" x="320.46" y="206.57" width="10.2" height="0.22"/><rect class="cls-1" x="320.46" y="206.35" width="10.2" height="0.22"/><rect class="cls-1" x="320.46" y="206.12" width="10.2" height="0.22"/><rect class="cls-1" x="320.46" y="205.9" width="10.2" height="0.22"/><rect class="cls-1" x="320.46" y="205.68" width="10.2" height="0.22"/><rect class="cls-1" x="320.46" y="205.45" width="10.2" height="0.22"/><rect class="cls-1" x="320.46" y="205.23" width="10.2" height="0.22"/><rect class="cls-1" x="320.46" y="205" width="10.2" height="0.22"/><rect class="cls-1" x="320.46" y="204.78" width="10.2" height="0.22"/><rect class="cls-1" x="320.46" y="204.56" width="10.2" height="0.22"/><rect class="cls-1" x="320.46" y="204.33" width="10.2" height="0.22"/><rect class="cls-1" x="320.46" y="204.11" width="10.2" height="0.22"/><rect class="cls-1" x="320.46" y="203.88" width="10.2" height="0.22"/><rect class="cls-1" x="320.46" y="203.66" width="10.2" height="0.22"/><rect class="cls-1" x="320.46" y="203.44" width="10.2" height="0.22"/><rect class="cls-1" x="320.46" y="203.21" width="10.2" height="0.22"/><rect class="cls-1" x="320.46" y="202.99" width="10.2" height="0.22"/><rect class="cls-1" x="320.46" y="202.76" width="10.2" height="0.22"/><rect class="cls-1" x="320.46" y="202.54" width="10.2" height="0.22"/><rect class="cls-1" x="320.46" y="202.32" width="10.2" height="0.22"/><path class="cls-1" d="M330.66,202.32h0Z"/></g><path class="cls-1" d="M362.47,212.67a3.77,3.77,0,0,1-1.36,3,5.47,5.47,0,0,1-3.54,1.1,4.42,4.42,0,0,1-3.22-1.12,4.49,4.49,0,0,1-1.23-3.2v-.41H356v.39a1.93,1.93,0,0,0,.41,1.37,1.56,1.56,0,0,0,1.16.42,2.15,2.15,0,0,0,1.47-.47,1.4,1.4,0,0,0,.53-1.15,1.43,1.43,0,0,0-.35-1,7.87,7.87,0,0,0-2.15-1.29l-1-.47a5.53,5.53,0,0,1-2.13-1.63,3.76,3.76,0,0,1-.73-2.3,3.5,3.5,0,0,1,1.34-2.87A5.09,5.09,0,0,1,358,202a4.53,4.53,0,0,1,3.07,1,4.1,4.1,0,0,1,1.32,2.84l0,.43h-2.89l0-.36a1.25,1.25,0,0,0-.46-1,1.67,1.67,0,0,0-1.19-.38,1.82,1.82,0,0,0-1.24.41,1.23,1.23,0,0,0-.46,1,1.2,1.2,0,0,0,.4.88,6.55,6.55,0,0,0,1.76,1.08l.77.38a7.28,7.28,0,0,1,2.62,1.92A3.91,3.91,0,0,1,362.47,212.67Z"/><g class="cls-4"><rect class="cls-1" x="353.11" y="216.58" width="9.37" height="0.23"/><rect class="cls-1" x="353.11" y="216.35" width="9.37" height="0.23"/><rect class="cls-1" x="353.11" y="216.12" width="9.37" height="0.23"/><rect class="cls-1" x="353.11" y="215.88" width="9.37" height="0.23"/><rect class="cls-1" x="353.11" y="215.65" width="9.37" height="0.23"/><rect class="cls-1" x="353.11" y="215.42" width="9.37" height="0.23"/><rect class="cls-1" x="353.11" y="215.19" width="9.37" height="0.23"/><rect class="cls-1" x="353.11" y="214.96" width="9.37" height="0.23"/><rect class="cls-1" x="353.11" y="214.73" width="9.37" height="0.23"/><rect class="cls-1" x="353.11" y="214.5" width="9.37" height="0.23"/><rect class="cls-1" x="353.11" y="214.27" width="9.37" height="0.23"/><rect class="cls-1" x="353.11" y="214.04" width="9.37" height="0.23"/><rect class="cls-1" x="353.11" y="213.8" width="9.37" height="0.23"/><rect class="cls-1" x="353.11" y="213.57" width="9.37" height="0.23"/><rect class="cls-1" x="353.11" y="213.34" width="9.37" height="0.23"/><rect class="cls-1" x="353.11" y="213.11" width="9.37" height="0.23"/><rect class="cls-1" x="353.11" y="212.88" width="9.37" height="0.23"/><rect class="cls-1" x="353.11" y="212.65" width="9.37" height="0.23"/><rect class="cls-1" x="353.11" y="212.42" width="9.37" height="0.23"/><rect class="cls-1" x="353.11" y="212.19" width="9.37" height="0.23"/><rect class="cls-1" x="353.11" y="211.96" width="9.37" height="0.23"/><rect class="cls-1" x="353.11" y="211.72" width="9.37" height="0.23"/><rect class="cls-1" x="353.11" y="211.49" width="9.37" height="0.23"/><rect class="cls-1" x="353.11" y="211.26" width="9.37" height="0.23"/><rect class="cls-1" x="353.11" y="211.03" width="9.37" height="0.23"/><rect class="cls-1" x="353.11" y="210.8" width="9.37" height="0.23"/><rect class="cls-1" x="353.11" y="210.57" width="9.37" height="0.23"/><rect class="cls-1" x="353.11" y="210.34" width="9.37" height="0.23"/><rect class="cls-1" x="353.11" y="210.11" width="9.37" height="0.23"/><rect class="cls-1" x="353.11" y="209.88" width="9.37" height="0.23"/><rect class="cls-1" x="353.11" y="209.64" width="9.37" height="0.23"/><rect class="cls-1" x="353.11" y="209.41" width="9.37" height="0.23"/><rect class="cls-1" x="353.11" y="209.18" width="9.37" height="0.23"/><rect class="cls-1" x="353.11" y="208.95" width="9.37" height="0.23"/><rect class="cls-1" x="353.11" y="208.72" width="9.37" height="0.23"/><rect class="cls-1" x="353.11" y="208.49" width="9.37" height="0.23"/><rect class="cls-1" x="353.11" y="208.26" width="9.37" height="0.23"/><rect class="cls-1" x="353.11" y="208.03" width="9.37" height="0.23"/><rect class="cls-1" x="353.11" y="207.8" width="9.37" height="0.23"/><rect class="cls-1" x="353.11" y="207.56" width="9.37" height="0.23"/><rect class="cls-1" x="353.11" y="207.33" width="9.37" height="0.23"/><rect class="cls-1" x="353.11" y="207.1" width="9.37" height="0.23"/><rect class="cls-1" x="353.11" y="206.87" width="9.37" height="0.23"/><rect class="cls-1" x="353.11" y="206.64" width="9.37" height="0.23"/><rect class="cls-1" x="353.11" y="206.41" width="9.37" height="0.23"/><rect class="cls-1" x="353.11" y="206.18" width="9.37" height="0.23"/><rect class="cls-1" x="353.11" y="205.95" width="9.37" height="0.23"/><rect class="cls-1" x="353.11" y="205.72" width="9.37" height="0.23"/><rect class="cls-1" x="353.11" y="205.48" width="9.37" height="0.23"/><rect class="cls-1" x="353.11" y="205.25" width="9.37" height="0.23"/><rect class="cls-1" x="353.11" y="205.02" width="9.37" height="0.23"/><rect class="cls-1" x="353.11" y="204.79" width="9.37" height="0.23"/><rect class="cls-1" x="353.11" y="204.56" width="9.37" height="0.23"/><rect class="cls-1" x="353.11" y="204.33" width="9.37" height="0.23"/><rect class="cls-1" x="353.11" y="204.1" width="9.37" height="0.23"/><rect class="cls-1" x="353.11" y="203.87" width="9.37" height="0.23"/><rect class="cls-1" x="353.11" y="203.64" width="9.37" height="0.23"/><rect class="cls-1" x="353.11" y="203.4" width="9.37" height="0.23"/><rect class="cls-1" x="353.11" y="203.17" width="9.37" height="0.23"/><rect class="cls-1" x="353.11" y="202.94" width="9.37" height="0.23"/><rect class="cls-1" x="353.11" y="202.71" width="9.37" height="0.23"/><rect class="cls-1" x="353.11" y="202.48" width="9.37" height="0.23"/><rect class="cls-1" x="353.11" y="202.25" width="9.37" height="0.23"/><rect class="cls-1" x="353.11" y="202.02" width="9.37" height="0.23"/><path class="cls-1" d="M362.47,202h0Z"/></g><circle class="cls-1" cx="200.45" cy="209.41" r="2.31"/><circle class="cls-1" cx="383.69" cy="209.41" r="2.31"/></g></g></svg>